<?xml version="1.0" encoding="utf-8"?>
<!-- Generator: Adobe Illustrator 23.0.2, SVG Export Plug-In . SVG Version: 6.00 Build 0)  -->
<svg version="1.1" id="Layer_1" xmlns="http://www.w3.org/2000/svg" xmlns:xlink="http://www.w3.org/1999/xlink" x="0px" y="0px"
	 viewBox="0 0 512 512" style="enable-background:new 0 0 512 512;" xml:space="preserve">
<style type="text/css">
	.st0{fill:#287270;}
</style>
<polygon class="st0" points="454.99,102.89 285.59,294.92 116.18,102.89 "/>
<path class="st0" d="M116.18,102.89h122.16c0-52.63-42.66-95.29-95.29-95.29s-95.29,42.66-95.29,95.29
	c0,52.63,42.66,95.29,95.29,95.29c16.89,0,32.74-4.41,46.49-12.12L116.18,102.89z"/>
<g>
	<rect x="169.69" y="496.79" class="st0" width="231.8" height="15.21"/>
	<path class="st0" d="M277.98,297.8v168.58h-77.88v15.21h170.96v-15.21h-77.88V297.8L471.83,95.29H245.67
		C241.76,42.09,197.24,0,143.06,0C86.32,0,40.17,46.16,40.17,102.89c0,56.74,46.16,102.89,102.89,102.89
		c15.49,0,30.83-3.53,44.72-10.24L277.98,297.8z M135.45,190.24c-18.47-1.59-35.33-8.94-48.76-20.24l41.74-41.74l7.02,7.96V190.24z
		 M161.41,95.29l48.75-48.75c11.29,13.43,18.65,30.28,20.25,48.75H161.41z M150.66,84.53V15.55c18.47,1.59,35.33,8.93,48.76,20.22
		L150.66,84.53z M135.45,84.47L86.7,35.78c13.43-11.29,30.28-18.64,48.75-20.23V84.47L135.45,84.47z M124.76,95.29H55.71
		c1.6-18.48,8.94-35.33,20.24-48.76L124.76,95.29z M112.75,110.5l5.6,6.35l-42.41,42.41c-11.29-13.43-18.64-30.28-20.24-48.76
		H112.75z M404.14,149.04h-64.81v15.21h51.39L285.59,283.43l-84.1-95.33l0,0l-21.04-23.85h132.01v-15.21H167.03l-34-38.54h112.92
		h192.19L404.14,149.04z M150.66,190.22v-36.75l26.6,30.16C168.82,187.21,159.82,189.42,150.66,190.22z"/>
</g>
</svg>
