<?xml version="1.0" encoding="utf-8"?>
<!-- Generator: Adobe Illustrator 23.0.2, SVG Export Plug-In . SVG Version: 6.00 Build 0)  -->
<svg version="1.1" id="Layer_1" xmlns="http://www.w3.org/2000/svg" xmlns:xlink="http://www.w3.org/1999/xlink" x="0px" y="0px"
	 viewBox="0 0 1060 1341" style="enable-background:new 0 0 1060 1341;" xml:space="preserve">
<style type="text/css">
	.st0{fill:#07665A;}
	.st1{fill:#009688;}
</style>
<g>
	<g>
		<path class="st0" d="M37.69,108.82c-2.4-5.73-4.36-11.61-5.68-17.68c-0.53-2.42-0.96-4.87-1.29-7.33
			c-0.25-1.87-1.11-5.57-0.67-7.23C30.02,77.39,30,78.2,29.99,79c0.06-1.69,0.18-3.38,0.35-5.07c1.16-11.2,4.79-22.06,11.03-31.46
			c12.62-19.02,33.77-29.29,56.51-26.75c21.69,2.41,43.72,13.67,58.17,30.05c7.09,8.03,12.42,17.51,15.69,27.7
			c1.75,5.44,2.93,11.05,3.52,16.73c0.16,1.57,0.59,3.65,0.37,5.22c0.79-5.6-0.19,0.02-0.39,1.86c-0.35,3.26-0.91,6.5-1.67,9.69
			c-5.5,23.05-21.68,40.87-39.29,55.8c-18.39,15.6-38.3,29.22-55.09,46.67c-16.62,17.26-30.42,37.18-39.4,59.46
			c-8.93,22.16-13.13,46-13.61,69.83c-0.51,24.96,1.6,49.54,7.61,73.83c6.6,26.69,17.01,52.27,29.42,76.76
			c-1.33-2.62,1.36-7.32,0-10c-23.56-46.48-41.93-100.06-35.48-152.81c3.07-25.14,10.86-49.7,23.92-71.47
			c12.55-20.91,29.32-38.98,48-54.54c19.08-15.89,40.36-29.73,56.21-49.11c7.5-9.16,13.53-19.54,16.81-30.96
			c2.8-9.75,3.14-19.59,3.07-29.65c-0.13-21.9-7.38-42.93-23.08-58.59C136.42,15.98,112.02,4.79,88.88,5.29
			c-25.83,0.56-47.38,19.2-55.3,43.24c-3.51,10.64-3.81,21.6-3.7,32.69c0.14,13.03,2.78,25.57,7.8,37.59
			C36.52,116.01,38.89,111.68,37.69,108.82L37.69,108.82z"/>
	</g>
</g>
<g>
	<g>
		<path class="st0" d="M67.53,65.56c7.36-9.25,19.42-12.35,30.79-10.34c12.85,2.27,23.73,11.01,32.01,20.69
			c19.42,22.73,29.76,54.79,23.81,84.12c-2.94,14.49-9.06,28.02-17.26,40.27c-8.74,13.06-19.2,24.85-28.17,37.74
			c-17.4,25-28.64,53.51-33.69,83.51c-2.49,14.81-3.46,29.58-3.37,44.57c0.09,14.02,0.84,29.8,10.7,40.77
			c-0.48-0.54,0.05-4.21,0.05-5c0-0.92,0.59-4.29-0.05-5c-9.55-10.62-11.16-26.61-10.32-40.28c0.98-16.13,3.69-32.32,8.02-47.88
			c8.26-29.7,23.74-55,42.53-79.12c9.29-11.92,18.5-23.98,24.64-37.89c5.72-12.97,8.69-26.91,9.07-41.07
			c0.74-27.53-3.92-54.2-20.09-77.15c-8.34-11.84-19.61-23.23-33.9-27.36c-12.36-3.57-26.52-0.94-34.77,9.42
			c-0.57,0.72-0.05,4.07-0.05,5C67.48,61.49,68.11,64.82,67.53,65.56L67.53,65.56z"/>
	</g>
</g>
<g>
	<g>
		<path class="st1" d="M347.8,347.13c0.04,0,0.04-5,0-5C347.76,342.13,347.76,347.13,347.8,347.13L347.8,347.13z"/>
	</g>
</g>
<g>
	<g>
		<path class="st0" d="M51.29,225.74c13.44,10.2,22.64,24.35,29.74,39.45c7.83,16.66,14.57,34.18,19.3,51.98
			c2.64,9.94,4.5,20.07,5.17,30.34c0.66,10.07-1.05,20.36-3.28,30.16c-4.17,18.26-11.41,35.68-19.69,52.43
			c-17.18,34.76-39.2,67.08-54.12,102.96c-13.01,31.3-18.88,66.57-11.42,100.08c7.45,33.5,28.83,67.27,64.79,73.65
			c32.04,5.68,71.72-12.32,74.94-48.1c1.34-14.87-0.64-29.42-6.53-43.17c-7.44-17.38-18.18-33.27-27.21-49.83
			c-18.68-34.28-34.73-69.96-47.96-106.68c-13.26-36.82-24.88-75.28-26.54-114.63c-1.52-36.07,12.08-74.83,38.4-99.94
			c24.57-23.45,62.67-34.82,92.96-15.17c14.01,9.09,23.95,23.36,29.57,38.94c3.14,8.7,5.39,18.69,5.5,27.64
			c0.11,9.28-1.97,19.74-4.43,28.98c-4.55,17.09-12.47,33.19-22.87,47.47c-10.89,14.95-24.01,28.08-35.65,42.41
			c-23.36,28.77-38.53,62.93-48.06,98.56c-8.7,32.52-15.02,67.32-11.18,101.08c3.89,34.2,24.71,66.2,58.54,76.93
			c31.18,9.89,70.52,0.87,82.7-32.5c4.48-12.27,4.76-26.45,3.53-39.37c-1.79-18.68-9.66-36.03-17.14-53
			c-7.88-17.87-15.24-35.99-20.75-54.75c-5.53-18.83-10.33-39.52-9.22-59.26c1.06-18.79,5.47-37.88,13.42-54.98
			c6.35-13.66,16.43-26.9,31.31-31.69c13.48-4.34,34.01-1.53,39.78,13.34c-1.11-2.87,1.13-7.08,0-10
			c-5.96-15.36-27.48-17.85-41.15-12.87c-14.79,5.39-24.49,18.98-30.68,32.83c-13.79,30.87-15.79,66.81-10.82,99.95
			c2.93,19.53,8.62,38.56,15.55,57.02c6.73,17.92,15.32,35.07,22.05,52.98c3.28,8.74,5.98,17.75,7.25,27.02
			c0.15,1.11,0.97,9.38,0.63,4.84c-0.3-4.05-0.13,0.8-0.2,1.54c-0.09,1.05-0.19,2.08-0.33,3.12c-0.56,4.25-1.55,8.46-2.96,12.51
			c-5.45,15.57-17.41,27.27-32.85,32.9c-32.57,11.88-69.89-1.43-90.32-28.59c-10.51-13.97-16.38-30.7-18.35-48
			c-2.26-19.91,2.05-40.55,6.16-59.99c7.7-36.42,20.12-72.19,40.96-103.27c20.49-30.55,50.1-53.92,64.58-88.48
			c6.68-15.95,10.33-33.1,10.62-50.39c0.28-16.14-0.71-31.95-6.8-47.11c-6.17-15.34-16.66-29.1-31.07-37.48
			c-14.97-8.71-32.67-10.57-49.37-6.4c-34.07,8.51-59.13,37.83-70.7,69.89c-11.59,32.12-10.91,69.04-5.61,102.39
			c6.14,38.59,19.2,76.24,33.77,112.37c14.6,36.21,32.25,70.84,51.82,104.6c4.72,8.15,9.4,16.39,13.12,25.06
			c1.6,3.74,3.02,7.56,4.14,11.47c0.66,2.3,1.22,4.64,1.64,6.99c0.22,1.21,0.4,2.44,0.54,3.66c0.1,1.17,0.2,2.34,0.3,3.5
			c0.13-4.69,0.08-5.48-0.14-2.36c-2.27,17.53-12.72,31.9-28.09,40.54c-30.11,16.93-68.86,8.06-89.79-18.84
			c-11.05-14.2-18.58-31.58-22.2-49.15c-4.02-19.54-1.7-37.65,4.18-57.12c11.31-37.48,33.14-70.73,51.71-104.84
			c17.56-32.25,33.07-66.33,33.37-103.7c0.13-16.81-1.35-33.09-5.75-49.38c-4.86-17.99-11.7-35.76-19.76-52.55
			c-6.99-14.57-16.06-28.14-29.05-38C52.85,216.92,49.64,224.48,51.29,225.74L51.29,225.74z"/>
	</g>
</g>
<g>
	<g>
		<path class="st0" d="M37.69,1226.41c-15.88,38-10.3,96.04,34.88,110.78c22.58,7.37,48.32-0.83,67.33-13.69
			c19.1-12.93,31.89-32.86,35.03-55.79c2.74-20,0.75-41.53-9.13-59.35c-11.93-21.51-32.11-36.76-51.13-51.62
			c-19.57-15.29-38.1-31.51-52.98-51.55c-15.04-20.26-25.47-43.41-30.85-68.05c-12.86-58.88,5.79-118.83,32.36-171.23
			c1.36-2.68-1.33-7.38,0-10c-21.78,42.96-36.81,89.33-37.09,137.85c-0.13,22.34,1.64,44.45,7.94,65.98
			c6.71,22.94,18.11,44.06,33.19,62.57c15.28,18.76,33.81,33.71,52.74,48.57c18.17,14.26,36.92,29.54,47.47,50.59
			c2.68,5.34,4.74,10.97,6.12,16.78c0.62,2.61,1.1,5.25,1.45,7.91c0.22,1.66,0.91,4.62,0.56,6.07c0.07-2.73,0.07-3.24,0-1.53
			c-0.06,1.44-0.17,2.88-0.32,4.32c-1.17,11.18-4.6,22.12-10.21,31.87c-11.07,19.25-30.4,32.57-51.33,39.19
			c-24.81,7.84-50.8,3.08-67.95-17.41c-7.9-9.43-12.91-20.91-14.86-33.04c-0.23-1.44-0.43-2.89-0.58-4.34
			c-0.15-1.39-0.25-2.79-0.31-4.19c-0.07-1.68-0.07-1.17,0.01,1.54c-0.68-3.09,0.83-8.67,1.42-11.82
			c1.32-7.03,3.48-13.82,6.23-20.42C38.89,1233.54,36.52,1229.22,37.69,1226.41L37.69,1226.41z"/>
	</g>
</g>
<g>
	<g>
		<path class="st0" d="M67.53,1289.67c7.37,9.25,19.41,12.35,30.79,10.34c12.86-2.27,23.73-11.01,32.01-20.69
			c18.4-21.53,26.03-48.69,26.03-76.6c0-13.43-1.15-26.57-5.37-39.41c-4.71-14.32-12.63-26.93-21.64-38.9
			c-9.16-12.18-18.95-23.84-26.95-36.85c-7.8-12.69-14.24-26.24-19.04-40.34c-5.63-16.55-9.03-33.88-10.74-51.26
			c-1.56-15.87-1.61-34.99,9.74-47.61c0.56-0.62,0.05-4.14,0.05-5c0-0.86-0.62-4.37-0.05-5c-8.8,9.79-10.37,23.65-10.65,36.29
			c-0.27,12.35,0.03,24.68,1.54,36.95c3.75,30.47,13.03,59.76,29.16,85.98c15.93,25.91,39.38,46.99,48.86,76.59
			c5.04,15.74,5.94,31.13,2.48,47.22c-3.05,14.2-8.8,27.77-17.09,39.71c-8.29,11.95-19.45,23.42-33.71,27.81
			c-12.49,3.85-27.02,1.33-35.42-9.22c0.5,0.63-0.05,4.14-0.05,5C67.48,1285.67,66.88,1288.86,67.53,1289.67L67.53,1289.67z"/>
	</g>
</g>
<g>
	<g>
		<path class="st0" d="M51.29,1129.49c13.44-10.19,22.64-24.35,29.74-39.45c7.96-16.93,14.81-34.76,19.54-52.87
			c8.64-33.06,6.92-68.34-4.47-100.49c-13.07-36.87-35.06-69.7-53.2-104.13c-8.86-16.82-16.99-34.16-22.4-52.43
			c-5.89-19.88-7.94-38.09-3.52-58.04c7.5-33.8,29.21-67.76,65.59-73.79c15.88-2.63,32.69-0.09,46.68,8
			c7.11,4.11,13.46,9.64,18.29,16.3c2.45,3.38,4.52,7.04,6.08,10.92c0.75,1.87,1.38,3.78,1.87,5.73c0.3,1.19,0.55,2.41,0.75,3.62
			c0.26,1.55,0.59,8.76,0.57,3.26c-0.02-5.66-0.59,3.64-0.86,5.11c-0.42,2.36-0.98,4.69-1.64,6.99c-1.28,4.47-2.95,8.82-4.84,13.07
			c-3.86,8.67-8.61,16.92-13.38,25.11c-9.67,16.62-18.92,33.43-27.44,50.67c-17.43,35.28-32.27,71.97-43.88,109.58
			c-19.76,64.06-32.25,149.87,20.35,202.42c23.94,23.92,61.78,36.63,92.7,18.13c14.55-8.7,25.02-22.93,30.99-38.64
			c5.69-14.96,6.51-30.52,6.19-46.35c-0.36-17.58-4.3-35.06-11.28-51.18c-7.27-16.77-17.92-31.32-29.8-45.1
			c-11.96-13.87-24.43-27.25-34.6-42.55c-10.19-15.33-18.44-31.87-25.02-49.05c-6.88-17.95-11.95-36.55-15.85-55.37
			c-3.97-19.18-8.04-39.38-5.66-58.99c4.18-34.51,25.73-66.43,60.08-76.56c31.52-9.3,70.28,0.74,81.59,34.52
			c1.28,3.82,2.17,7.76,2.71,11.75c0.21,1.55,0.3,3.09,0.46,4.64c0.39,3.71-0.78-1.25,0.05-1.58c-0.34,0.14-0.77,7.51-0.88,8.23
			c-1.45,9.24-4.27,18.21-7.63,26.92c-6.89,17.89-15.41,35.08-22.07,53.07c-12.43,33.57-19.24,68.48-16.59,104.34
			c1.32,17.94,5.66,36.11,13.26,52.45c6.36,13.67,16.43,26.87,31.31,31.69c13.47,4.36,34.02,1.52,39.78-13.34
			c1.13-2.92-1.11-7.13,0-10c-5.96,15.37-27.47,17.83-41.15,12.87c-14.49-5.26-24.15-18.49-30.31-32.02
			c-7.93-17.42-12.43-36.98-13.15-56.09c-0.74-19.74,4.21-40.38,9.86-59.16c5.62-18.7,13.06-36.74,20.94-54.58
			c7.35-16.65,14.93-33.79,16.48-52.15c1.12-13.26,0.79-27.58-4.16-40.07c-5.96-15.03-18.2-26.01-33.44-31.15
			c-32.64-11-69.25,2.5-89.36,29.72c-19.56,26.48-21.02,61.1-17.53,92.7c4.14,37.48,14.05,75.73,30.59,109.69
			c8.01,16.44,17.84,31.89,29.46,46.02c11.71,14.23,24.79,27.36,35.51,42.4c10.25,14.39,17.97,30.6,22.3,47.74
			c2.2,8.69,4.05,18.88,3.97,27.23c-0.09,9.6-2.44,19.55-5.76,28.52c-5.75,15.52-15.82,29.67-29.94,38.59
			c-14.58,9.21-32.13,11.8-48.91,8.2c-34.32-7.37-60.09-36.23-72.25-67.98c-6.82-17.79-10.39-37.67-9.5-56.72
			c0.94-20.14,4.57-40.1,9.57-59.6c9.68-37.76,23.57-74.63,39.65-110.11c7.91-17.47,16.49-34.64,25.69-51.48
			c9.17-16.77,20.15-32.88,27.43-50.61c5.59-13.63,7.52-28.75,5.66-43.4c-2.16-16.93-13.93-31.15-28.62-39.17
			c-30.05-16.41-68.35-7.5-89.11,19.21c-20.79,26.77-26.95,60.97-24.31,94.1c3.05,38.36,22.25,73.29,40.74,106.19
			c18.63,33.14,39.25,66.68,47.4,104.28c2.28,10.53,3.59,21.22,2.61,31.98c-0.86,9.35-2.68,18.58-5.13,27.64
			c-4.86,17.98-11.69,35.77-19.76,52.55c-7,14.57-16.06,28.14-29.05,38C49.64,1120.74,52.85,1128.31,51.29,1129.49L51.29,1129.49z"
			/>
	</g>
</g>
</svg>
