<?xml version="1.0" encoding="utf-8"?>
<!-- Generator: Adobe Illustrator 23.0.2, SVG Export Plug-In . SVG Version: 6.00 Build 0)  -->
<svg version="1.1" id="Layer_1" xmlns="http://www.w3.org/2000/svg" xmlns:xlink="http://www.w3.org/1999/xlink" x="0px" y="0px"
	 viewBox="0 0 1060 1341" style="enable-background:new 0 0 1060 1341;" xml:space="preserve">
<style type="text/css">
	.st0{fill:#FFFFFF;}
	.st1{fill:#009688;}
</style>
<g>
	<path class="st0" d="M180.5,836.5"/>
	<g>
		<path d="M180.5,839c0.04,0,0.04-5,0-5C180.46,834,180.46,839,180.5,839L180.5,839z"/>
	</g>
</g>
<g>
	<g>
		<path class="st1" d="M37.69,111.32c-5.19-12.42-8.76-26.35-7.35-39.88c1.17-11.2,4.79-22.06,11.03-31.46
			c12.62-19.02,33.77-29.29,56.51-26.75c45.98,5.12,87.12,48.36,75.7,96.25c-5.5,23.05-21.68,40.87-39.29,55.8
			c-18.39,15.6-38.3,29.22-55.09,46.67c-16.62,17.26-30.42,37.18-39.4,59.46c-8.89,22.04-13.11,45.78-13.6,69.49
			c-1.05,51.44,13.92,100.37,37.02,145.93c-0.66-1.31,0.68-3.66,0-5c-24.49-48.31-42.17-103.07-35.48-157.81
			c3.07-25.14,10.86-49.7,23.92-71.47c12.55-20.91,29.32-38.98,48-54.54c19.08-15.89,40.36-29.73,56.21-49.11
			c13.54-16.55,20.01-35.58,19.86-56.85c-0.14-21.39-7.79-42.12-23.05-57.35C136.42,18.48,112.02,7.29,88.88,7.79
			c-25.83,0.56-47.38,19.2-55.3,43.24c-6.88,20.89-4.24,45.32,4.11,65.29C37.1,114.91,38.29,112.75,37.69,111.32L37.69,111.32z"/>
	</g>
</g>
<g>
	<g>
		<path class="st1" d="M67.53,63.06c7.36-9.25,19.42-12.35,30.79-10.34c12.85,2.27,23.73,11.01,32.01,20.69
			c20.6,24.11,30.13,57.95,23.81,89.12c-2.94,14.49-9.06,28.02-17.26,40.27c-8.74,13.06-19.2,24.85-28.17,37.74
			c-17.4,25-28.64,53.51-33.69,83.51c-2.26,13.44-3.43,26.93-3.35,40.55c0.08,13.72,1.07,29.09,10.68,39.79c-0.81-0.9,0.85-4.06,0-5
			c-10.69-11.89-11.25-30.13-10.33-45.19c0.98-16.16,3.69-32.38,8.03-47.97c8.26-29.7,23.74-55,42.53-79.12
			c9.29-11.92,18.5-23.98,24.64-37.89c5.67-12.86,8.66-26.69,9.06-40.73c0.72-25.8-5.04-51.15-20.07-72.49
			c-8.34-11.84-19.61-23.23-33.9-27.36c-12.36-3.57-26.52-0.94-34.77,9.42C66.7,59.09,68.33,62.06,67.53,63.06L67.53,63.06z"/>
	</g>
</g>
<g>
	<g>
		<path class="st1" d="M347.8,347.13c0.04,0,0.04-5,0-5C347.76,342.13,347.76,347.13,347.8,347.13L347.8,347.13z"/>
	</g>
</g>
<g>
	<g>
		<path class="st1" d="M51.29,223.24c13.44,10.2,22.64,24.35,29.74,39.45c7.83,16.66,14.57,34.18,19.3,51.98
			c5.76,21.68,6.9,43.55,1.89,65.51c-4.17,18.26-11.41,35.68-19.69,52.43C51.99,494.4,0.66,557.22,16.99,630.65
			c7.45,33.5,28.83,67.27,64.79,73.65c31.97,5.67,71.81-12.31,74.94-48.1c2.89-33.02-18.74-60.51-33.73-88
			c-18.68-34.28-34.73-69.96-47.96-106.68c-24.84-68.97-48.89-161.6,11.86-219.58c24.57-23.45,62.67-34.82,92.96-15.17
			c14.01,9.09,23.95,23.36,29.57,38.94c7.22,20.02,6.49,41.25,1.07,61.62c-4.55,17.09-12.47,33.19-22.87,47.47
			c-10.89,14.95-24.01,28.08-35.65,42.41c-23.36,28.77-38.53,62.93-48.06,98.56c-8.25,30.85-14.83,64.02-11.18,96.08
			c3.89,34.2,24.71,66.2,58.54,76.93c31.18,9.89,70.52,0.87,82.7-32.5c10.78-29.54-1.71-60.36-13.62-87.37
			c-16.27-36.9-32.29-77.83-29.98-118.92c1.06-18.82,5.46-37.94,13.42-55.07c6.35-13.66,16.43-26.9,31.31-31.69
			c13.48-4.34,34.01-1.53,39.78,13.34c-0.56-1.44,0.57-3.54,0-5c-5.96-15.36-27.48-17.85-41.15-12.87
			c-14.79,5.39-24.49,18.98-30.68,32.83c-13.18,29.51-15.58,63.23-10.82,94.95c2.93,19.53,8.62,38.56,15.55,57.02
			c6.73,17.92,15.32,35.07,22.05,52.98c6.56,17.47,10.75,35.87,4.4,54.04c-5.45,15.57-17.41,27.27-32.85,32.9
			c-32.57,11.88-69.89-1.43-90.32-28.59c-10.51-13.97-16.38-30.7-18.35-48c-2.46-21.65,1.68-43.83,6.16-64.99
			c7.7-36.42,20.12-72.19,40.96-103.27c20.49-30.55,50.1-53.92,64.58-88.48c11.84-28.27,15.47-63.53,3.82-92.51
			c-6.17-15.34-16.66-29.1-31.07-37.48c-14.97-8.71-32.67-10.57-49.37-6.4c-34.07,8.51-59.13,37.83-70.7,69.89
			c-11.11,30.81-10.69,65.4-5.61,97.39c6.14,38.59,19.2,76.24,33.77,112.37c14.6,36.21,32.25,70.84,51.82,104.6
			c8.91,15.37,21.11,34.7,19.61,53.27c-1.41,17.38-13.23,32.23-28.09,40.59c-30.11,16.93-68.86,8.06-89.79-18.84
			c-11.05-14.2-18.58-31.58-22.2-49.15c-4.31-20.93-1.95-41.82,4.18-62.12c11.31-37.48,33.14-70.73,51.71-104.84
			c17.37-31.9,33.11-65.96,33.35-102.97c0.22-34.13-10.85-67.14-25.5-97.66c-6.99-14.57-16.06-28.14-29.05-38
			C52.07,218.83,50.47,222.61,51.29,223.24L51.29,223.24z"/>
	</g>
</g>
<g>
	<g>
		<path class="st1" d="M37.69,1228.91c-15.55,37.2-8.94,91.48,34.88,105.78c22.58,7.37,48.32-0.83,67.33-13.69
			c19.1-12.93,31.89-32.86,35.03-55.79c2.54-18.52-0.01-37.91-9.13-54.35c-11.93-21.51-32.11-36.76-51.13-51.62
			c-19.57-15.29-38.1-31.51-52.98-51.55c-15.04-20.26-25.47-43.41-30.85-68.05C17.61,979.02,35.83,917.4,63.21,863.4
			c0.68-1.34-0.66-3.69,0-5C41.67,900.89,26.43,947,26.14,995.02c-0.28,45.58,12.03,89.11,41.1,124.8
			c15.28,18.76,33.81,33.71,52.74,48.57c18.17,14.26,36.92,29.54,47.47,50.59c11.3,22.54,10.13,48.63-2.4,70.42
			c-11.07,19.25-30.4,32.57-51.33,39.19c-24.81,7.84-50.8,3.08-67.95-17.41c-7.9-9.43-12.91-20.91-14.86-33.04
			c-2.42-15.06,0.96-30.31,6.77-44.23C38.29,1232.48,37.1,1230.31,37.69,1228.91L37.69,1228.91z"/>
	</g>
</g>
<g>
	<g>
		<path class="st1" d="M67.53,1287.17c7.37,9.25,19.41,12.35,30.79,10.34c12.86-2.27,23.73-11.01,32.01-20.69
			c17.65-20.65,25.96-47.18,26.01-74.1c0.02-12.55-1.41-24.94-5.35-36.91c-4.71-14.32-12.63-26.93-21.64-38.9
			c-9.16-12.18-18.95-23.84-26.95-36.85c-7.8-12.69-14.24-26.24-19.04-40.34c-5.63-16.55-9.03-33.88-10.74-51.26
			c-1.68-17.06-2.61-38.88,9.74-52.61c0.84-0.94-0.81-4.1,0-5c-8.72,9.7-10.34,23.41-10.63,35.95c-0.25,10.79,0.2,21.57,1.52,32.29
			c3.75,30.47,13.03,59.76,29.16,85.98c15.93,25.91,39.38,46.99,48.86,76.59c9.9,30.94,3.84,65.36-14.6,91.93
			c-8.29,11.95-19.45,23.42-33.71,27.81c-12.49,3.85-27.02,1.33-35.42-9.22C68.33,1283.17,66.7,1286.13,67.53,1287.17L67.53,1287.17
			z"/>
	</g>
</g>
<g>
	<g>
		<path class="st1" d="M85.8,776.09c0.04,0,0.04-5,0-5C85.76,771.09,85.76,776.09,85.8,776.09L85.8,776.09z"/>
	</g>
</g>
<g>
	<g>
		<path class="st1" d="M51.29,1126.99c13.44-10.19,22.64-24.35,29.74-39.45c7.96-16.93,14.81-34.76,19.54-52.87
			c8.32-31.83,6.51-64.53-4.47-95.49c-13.07-36.87-35.06-69.7-53.2-104.13C24.31,799.73,8,760.1,16.99,719.58
			c7.5-33.8,29.21-67.76,65.59-73.79c15.88-2.63,32.69-0.09,46.68,8c14.78,8.55,27.59,24.56,27.57,42.35
			c-0.02,18.78-11.62,37.14-20.72,52.78c-9.67,16.62-18.92,33.43-27.44,50.67c-17.43,35.28-32.27,71.97-43.88,109.58
			c-19.48,63.16-31.52,145.6,20.35,197.42c23.94,23.92,61.78,36.63,92.7,18.13c27.91-16.7,37.79-49.54,37.17-80.32
			c-0.35-17.45-4.34-34.84-11.27-50.84c-7.27-16.77-17.92-31.32-29.8-45.1c-11.96-13.87-24.43-27.25-34.6-42.55
			c-10.19-15.33-18.44-31.87-25.02-49.05c-6.88-17.95-11.95-36.55-15.85-55.37c-4.32-20.87-8.25-42.65-5.66-63.99
			c4.18-34.51,25.73-66.43,60.08-76.56c31.52-9.3,70.28,0.74,81.59,34.52c6.21,18.55,1.52,37.29-5.3,54.97
			c-6.89,17.89-15.41,35.08-22.07,53.07c-11.79,31.83-19.13,65.36-16.58,99.43c1.34,17.91,5.66,36.04,13.25,52.36
			c6.36,13.67,16.43,26.87,31.31,31.69c13.47,4.36,34.02,1.52,39.78-13.34c0.57-1.46-0.56-3.56,0-5
			c-5.96,15.37-27.47,17.83-41.15,12.87c-14.49-5.26-24.15-18.49-30.31-32.02c-7.94-17.44-12.45-37.04-13.15-56.18
			c-0.79-21.62,3.67-43.46,9.87-64.07c5.62-18.7,13.06-36.74,20.94-54.58c7.35-16.65,14.94-33.79,16.48-52.15
			c0.99-11.75,0.21-24.04-4.16-35.07c-5.96-15.03-18.2-26.01-33.44-31.15c-32.64-11-69.25,2.5-89.36,29.72
			c-18.62,25.21-20.87,57.52-17.53,87.7c4.14,37.48,14.05,75.73,30.59,109.69c8.01,16.44,17.84,31.89,29.46,46.02
			c11.71,14.23,24.79,27.36,35.51,42.4c21.76,30.56,33.99,72.13,20.52,108.48c-5.75,15.52-15.82,29.67-29.94,38.59
			c-14.58,9.21-32.13,11.8-48.91,8.2c-34.32-7.37-60.09-36.23-72.25-67.98c-14.97-39.08-10.09-81.69,0.07-121.32
			c9.68-37.76,23.57-74.63,39.65-110.11c7.91-17.47,16.49-34.64,25.69-51.48c9.17-16.77,20.15-32.88,27.43-50.61
			c4.97-12.11,7.31-25.33,5.66-38.4c-2.15-16.93-13.94-31.15-28.62-39.17c-30.05-16.41-68.35-7.5-89.11,19.21
			C19.22,692.45,12,724.97,14.49,756.39c3.05,38.34,22.25,73.26,40.74,106.14c18.63,33.14,39.25,66.68,47.4,104.28
			c8.72,40.26-4.91,81.03-22.28,117.18c-7,14.57-16.06,28.14-29.05,38C50.47,1122.61,52.07,1126.4,51.29,1126.99L51.29,1126.99z"/>
	</g>
</g>
</svg>
